PathFileType	4	(X/Y/Z)	C:\Users\Basilio\Documents\Thesis Gigler\squatting_fais\c3dfiles\041\SJ_pre2\markers_experimental.trc
DataRate	CameraRate	NumFrames	NumMarkers	Units	OrigDataRate	OrigDataStartFrame	OrigNumFrames
200.000000	200.000000	4	62	mm	200.000000	0	1390
Frame#	Time	FHD			LBHD			RBHD			C7			T10			CLAV			LSHO			LUUPA			LMUPA			LDUPA			LLEP			LMEP			LRAD			LUL			LRFIN			RSHO			RUPA1			RMUPA			RDUPA			RLEP			RMEP			RRAD			RUL			RUFIN			LASI			RASI			USACR			LSACR			RSACR			LTHI1			LTHI2			LTHI3			LTHI4			LLFC			LMFC			LTIB1			LTIB2			LTIB3			LTIB4			LLMAL			LMMAL			LHEE			LMT1			LMT2			LMT5			RTHI			RTHI2			RTHI3			RTHI4			RLFC			RMFC			RTIB1			RTIB2			RTIB3			RTIB4			RLMAL			RMMAL			RHEE			RMT1			RMT2			RMT5			*61			
		X1	Y1	Z1	X2	Y2	Z2	X3	Y3	Z3	X4	Y4	Z4	X5	Y5	Z5	X6	Y6	Z6	X7	Y7	Z7	X8	Y8	Z8	X9	Y9	Z9	X10	Y10	Z10	X11	Y11	Z11	X12	Y12	Z12	X13	Y13	Z13	X14	Y14	Z14	X15	Y15	Z15	X16	Y16	Z16	X17	Y17	Z17	X18	Y18	Z18	X19	Y19	Z19	X20	Y20	Z20	X21	Y21	Z21	X22	Y22	Z22	X23	Y23	Z23	X24	Y24	Z24	X25	Y25	Z25	X26	Y26	Z26	X27	Y27	Z27	X28	Y28	Z28	X29	Y29	Z29	X30	Y30	Z30	X31	Y31	Z31	X32	Y32	Z32	X33	Y33	Z33	X34	Y34	Z34	X35	Y35	Z35	X36	Y36	Z36	X37	Y37	Z37	X38	Y38	Z38	X39	Y39	Z39	X40	Y40	Z40	X41	Y41	Z41	X42	Y42	Z42	X43	Y43	Z43	X44	Y44	Z44	X45	Y45	Z45	X46	Y46	Z46	X47	Y47	Z47	X48	Y48	Z48	X49	Y49	Z49	X50	Y50	Z50	X51	Y51	Z51	X52	Y52	Z52	X53	Y53	Z53	X54	Y54	Z54	X55	Y55	Z55	X56	Y56	Z56	X57	Y57	Z57	X58	Y58	Z58	X59	Y59	Z59	X60	Y60	Z60	X61	Y61	Z61	X62	Y62	Z62	

1	0	-220.141098022461	1741.385131835938	-1006.456237792969	-368.2444763183594	1641.69921875	-1102.571655273438	-372.8236083984376	1652.672607421875	-949.8116455078127	-406.5289916992189	1517.798461914063	-1023.931884765625	-449.0379333496095	1204.73828125	-982.1488037109377	-252.9192962646485	1445.831787109375	-1010.67724609375	-320.3096618652344	1483.282470703125	-1190.079223632813	-390.949920654297	1345.185180664063	-1315.896240234375	-373.5376281738282	1298.59228515625	-1311.52685546875	-418.926239013672	1292.87939453125	-1352.398315429688	-436.1118164062501	1245.305786132813	-1372.020385742188	-493.403778076172	1216.83349609375	-1306.0751953125	-351.8278503417969	1076.021240234375	-1183.593627929688	-333.0688476562501	1029.582641601563	-1238.607788085938	-300.6992797851563	1063.997680664063	-1143.17236328125	-313.3622131347657	1526.67138671875	-849.384460449219	-413.6446533203126	1400.025756835938	-690.9780273437501	-373.8076782226563	1368.088623046875	-687.9227294921876	-408.9444580078126	1341.971313476563	-649.6998901367189	-412.5161132812501	1296.1533203125	-628.5668334960939	-479.3972778320314	1271.377807617188	-689.8381347656251	-390.0591735839845	1075.90185546875	-762.5314941406251	-344.7993164062501	1058.906005859375	-799.8637695312502	-367.0166015625001	1041.89697265625	-698.3516235351564	-268.6888122558594	1007.748046875	-1071.364990234375	-298.1659545898438	996.4505615234377	-855.4759521484377	-456.9033508300782	1095.182495117188	-980.8164672851565	-469.6922912597657	1071.472045898438	-1010.190246582031	-480.8719482421876	1069.98974609375	-956.9797363281252	-396.8925170898439	825.905456542969	-1176.8349609375	-371.5291748046876	745.1010742187501	-1175.495971679688	-325.3838806152344	742.4813232421876	-1159.325927734375	-407.4009399414064	695.8121948242189	-1174.042114257813	-413.0832519531251	513.3997802734376	-1173.951416015625	-416.4739074707032	483.912811279297	-1057.814697265625	-366.0811767578126	324.6044616699219	-1132.131958007813	-405.410125732422	281.5181274414063	-1202.014892578125	-369.5744628906251	280.2416687011719	-1172.87158203125	-360.5105590820313	201.0145721435547	-1147.0693359375	-402.0130615234376	99.59559631347659	-1194.56494140625	-364.9167175292969	104.5754165649414	-1113.1337890625	-456.3388977050782	51.69169235229494	-1160.293823242188	-240.2235565185547	60.90600585937501	-1130.308349609375	-233.5628051757813	59.98512649536134	-1174.948974609375	-272.0950012207032	34.40586090087891	-1231.859497070313	-420.368865966797	757.0599975585939	-771.6174316406252	-378.8846740722657	706.8786621093751	-757.3960571289064	-346.0440979003907	710.5845336914064	-758.8248901367189	-398.6678161621095	624.4162597656251	-765.3739013671876	-379.6133728027344	503.5032043457032	-744.4861450195314	-353.1085815429688	469.8462219238282	-856.6253662109377	-343.4418640136719	337.4385681152344	-724.7032470703126	-427.4945678710939	264.8806457519532	-702.4653320312501	-380.5522460937501	262.2608642578126	-701.0193481445314	-357.3584289550782	210.5780487060547	-718.8666381835939	-414.2894287109376	95.69346618652345	-687.9166870117189	-378.4997558593751	103.0234756469727	-767.9153442382814	-466.1997680664064	47.67038726806641	-737.6023559570314	-248.7189025878907	57.341854095459	-726.6363525390626	-250.8476715087891	65.25325775146486	-674.8886718750001	-298.0169677734376	42.37987136840821	-631.7225952148439	-4216.587890625001	853.156433105469	-3944.722412109376	
2	0.005	-220.3701782226563	1741.2841796875	-1007.848999023438	-368.5903930664063	1641.4873046875	-1103.851196289063	-373.1108398437501	1652.863525390625	-950.9363403320315	-406.6177368164064	1517.71923828125	-1024.827026367188	-449.269256591797	1204.8134765625	-982.344909667969	-252.874008178711	1445.740966796875	-1011.618041992188	-320.5479125976563	1482.947021484375	-1190.963989257813	-391.3755493164064	1344.6806640625	-1316.4833984375	-374.1029663085938	1298.223876953125	-1312.093383789063	-419.376678466797	1292.43994140625	-1353.052612304688	-436.7197265625001	1244.825805664063	-1372.505981445313	-493.908660888672	1216.47802734375	-1306.445434570313	-352.1039428710938	1075.939453125	-1183.7978515625	-333.4373168945313	1029.438110351563	-1238.7841796875	-300.9871215820313	1064.008422851563	-1143.424438476563	-313.1796569824219	1526.988159179688	-850.3504638671877	-413.5298461914064	1400.507080078125	-691.7778320312501	-373.9959716796876	1368.673828125	-688.8948364257814	-408.744354248047	1342.544189453125	-650.4082641601564	-412.2518615722657	1296.485229492188	-629.2870483398439	-479.3009338378907	1272.02685546875	-690.4829101562501	-390.2236633300782	1076.29150390625	-762.8110961914064	-344.8812255859376	1059.061889648438	-800.1025390625002	-367.1622009277344	1042.224975585938	-698.5319824218751	-268.8388671875001	1007.795959472656	-1071.68115234375	-298.3824768066407	996.6230468750002	-855.6669921875002	-457.1151428222657	1095.151489257813	-980.949401855469	-469.9920654296876	1071.47705078125	-1010.326782226563	-481.105194091797	1069.981811523438	-957.158142089844	-397.0146789550782	825.9053955078127	-1176.9345703125	-371.6617126464844	745.1036376953126	-1175.636596679688	-325.5162963867188	742.4458007812501	-1159.459838867188	-407.5065917968751	695.7872924804689	-1174.141967773438	-413.1287231445314	513.4959716796876	-1174.8837890625	-416.5402221679689	483.9046936035157	-1057.863891601563	-366.1907043457032	324.5726013183594	-1132.164672851563	-405.3989868164064	281.4759826660157	-1202.082763671875	-369.6028442382813	280.2545166015626	-1172.949951171875	-360.5453186035157	201.0306854248047	-1147.059936523438	-401.9984741210939	99.55075836181643	-1194.583862304688	-364.9292297363282	104.5694427490235	-1113.120971679688	-456.337371826172	51.68967056274415	-1160.289184570313	-240.1986999511719	60.92332839965822	-1130.27734375	-233.571517944336	59.992244720459	-1174.959350585938	-272.1090393066407	34.43284225463868	-1231.93505859375	-420.2915039062501	757.1212158203126	-771.7409667968752	-378.8809814453126	706.9303588867189	-757.5423583984376	-346.0369262695313	710.6378784179689	-758.9931030273439	-398.6135253906251	624.4733886718751	-765.4701538085939	-379.3945617675782	503.6196289062501	-744.6048583984376	-353.1060791015626	469.9503479003907	-856.7680664062502	-343.3860168457032	337.4612731933594	-724.8875732421876	-427.5152893066407	265.0397949218751	-702.4760131835939	-380.5137329101563	262.3806152343751	-701.1209716796876	-357.4480895996094	210.6696014404297	-719.0045166015626	-414.4125366210939	95.76318359375001	-687.9188842773439	-378.7967224121094	103.1791687011719	-767.9923706054689	-466.2682189941407	47.62981414794923	-737.6185302734376	-248.6950225830079	57.69278717041017	-726.8237304687501	-250.6994323730469	65.3955535888672	-675.3331909179689	-298.0815429687501	42.56501007080079	-631.9257812500001	-4216.587890625001	853.156433105469	-3944.722412109376	
3	0.01	-220.4495391845704	1741.195678710938	-1009.488159179688	-368.5920410156251	1641.191162109375	-1105.056274414063	-373.2854919433594	1652.75439453125	-952.3336181640627	-406.690399169922	1517.67529296875	-1025.618041992188	-449.565887451172	1204.875244140625	-982.557312011719	-252.8134765625001	1445.768676757813	-1012.640441894531	-320.8112182617188	1482.641845703125	-1191.704711914063	-391.7604064941407	1344.17822265625	-1317.1279296875	-374.4877319335938	1297.633911132813	-1312.648803710938	-419.9369506835939	1291.863037109375	-1353.536987304688	-437.1395568847657	1244.336669921875	-1372.96484375	-494.4432983398439	1216.061401367188	-1306.876098632813	-352.4631042480469	1075.887939453125	-1183.970336914063	-333.7539367675782	1029.242919921875	-1238.889770507813	-301.3314819335938	1063.9970703125	-1143.649047851563	-313.0143127441407	1527.300903320313	-851.3558349609377	-413.2867126464845	1401.306884765625	-692.3729858398439	-373.8616027832032	1369.234252929688	-689.5343627929689	-408.6199340820314	1343.12744140625	-651.0237426757814	-412.196014404297	1297.119384765625	-629.9758300781251	-479.2487182617189	1272.643798828125	-691.0987548828126	-390.4297790527345	1076.6884765625	-763.0663452148439	-345.0180969238282	1059.2314453125	-800.2563476562502	-367.3261413574219	1042.648315429688	-698.6105346679689	-269.0204772949219	1007.855285644531	-1072.001220703125	-298.6411437988282	996.7377929687502	-855.818054199219	-457.2832031250001	1095.197998046875	-981.1460571289065	-470.2119750976564	1071.45703125	-1010.508483886719	-481.3514709472657	1070.048461914063	-957.303405761719	-397.1917724609376	825.8833007812502	-1177.004028320313	-371.8314208984376	745.0884399414064	-1175.787719726563	-325.6376647949219	742.4766235351564	-1159.603759765625	-407.6677551269532	695.7278442382814	-1174.227294921875	-413.2959289550782	513.3644409179689	-1174.140991210938	-416.6367492675782	483.8963928222657	-1057.932250976563	-366.1954345703126	324.5798950195313	-1132.18505859375	-405.4088439941407	281.4764404296876	-1202.163330078125	-369.7549438476563	280.2552795410157	-1172.993774414063	-360.5843505859376	201.0023651123047	-1147.11083984375	-402.008758544922	99.58789825439456	-1194.5791015625	-364.8086853027344	104.6561508178711	-1113.060791015625	-456.3308410644532	51.7042808532715	-1160.293334960938	-240.2454681396485	60.91198348999025	-1130.328247070313	-233.5566864013672	59.97200012207033	-1174.95068359375	-272.0896911621094	34.41732025146485	-1231.920166015625	-420.2213745117189	757.1973266601564	-771.8551025390627	-378.7774047851563	706.9863281250001	-757.6843872070314	-345.8202819824219	710.7388916015626	-759.2828369140626	-398.5715942382814	624.5574951171876	-765.5703735351564	-379.3002014160157	503.7430725097657	-744.6606445312501	-353.2063903808594	470.0377502441407	-856.932800292969	-342.9563293457032	338.0933532714844	-725.0228271484376	-427.6275329589845	265.3013610839844	-702.1760253906251	-380.5378417968751	262.4824829101563	-701.1689453125001	-357.4947814941407	210.7093963623047	-719.1268920898439	-414.4908142089845	95.78877258300783	-687.9643554687501	-379.3345031738282	103.2925033569336	-767.7742309570314	-466.3477478027345	47.56562042236329	-737.6113281250001	-248.9047393798829	58.38376235961915	-727.1672973632814	-251.2729797363282	65.91145324707033	-675.4713134765626	-298.0822448730469	42.82089233398438	-632.1292724609376	-4216.510253906251	853.1059570312502	-3944.728027343751	
4	0.015	-220.6069030761719	1741.18115234375	-1010.830810546875	-368.8758850097657	1640.962280273438	-1106.305419921875	-373.3992919921876	1652.804321289063	-953.6599731445315	-406.8561401367189	1517.662109375	-1026.373291015625	-449.7265625000001	1204.936645507813	-982.733581542969	-253.1370544433594	1445.754516601563	-1013.51904296875	-321.1808166503907	1482.270874023438	-1192.647216796875	-392.0190734863282	1343.29150390625	-1317.163330078125	-374.9890441894532	1297.258178710938	-1313.26171875	-420.3408813476564	1291.470825195313	-1354.047485351563	-437.6456909179689	1243.871948242188	-1373.359619140625	-495.0384521484376	1215.637084960938	-1307.328979492188	-352.6900329589844	1075.8427734375	-1184.150390625	-334.1329956054688	1029.095703125	-1239.077880859375	-301.6063232421876	1063.972290039063	-1143.900756835938	-312.7831115722657	1527.575439453125	-852.2714843750002	-413.1470642089845	1401.8212890625	-693.1124877929689	-373.8969421386719	1369.642700195313	-690.2161254882814	-408.5513610839845	1343.697387695313	-651.7228393554689	-412.2722167968751	1297.857177734375	-630.4429931640626	-479.2969970703126	1273.217651367188	-691.6799926757814	-390.5456848144532	1077.032836914063	-763.2862548828126	-345.1560668945313	1059.523559570313	-800.4114990234377	-367.4747924804688	1043.1328125	-698.7308959960939	-269.1502685546876	1007.959838867188	-1072.271362304688	-298.8382263183594	996.950134277344	-856.0471801757815	-457.5098571777345	1095.189819335938	-981.303649902344	-470.436981201172	1071.461669921875	-1010.645874023438	-481.5440979003907	1070.05517578125	-957.4470214843752	-397.4374389648439	825.8840942382815	-1177.082763671875	-371.9558715820313	745.0346679687501	-1175.907958984375	-325.8037109375001	742.4694824218751	-1159.722900390625	-407.7606811523439	695.6895751953126	-1174.30322265625	-413.5827026367189	513.8950195312501	-1175.01416015625	-416.7502441406251	483.8835449218751	-1058.0107421875	-366.2661743164063	324.6166381835938	-1132.236938476563	-405.4848632812501	281.4588012695313	-1202.141357421875	-369.7676391601563	280.2149353027344	-1173.064453125	-360.6218261718751	201.0001678466797	-1147.130737304688	-402.0094604492189	99.55497741699222	-1194.563598632813	-364.8104248046876	104.6554412841797	-1113.09130859375	-456.3308410644532	51.70426559448244	-1160.293334960938	-240.2180786132813	60.92186355590822	-1130.274536132813	-233.5714874267579	59.99229812622072	-1174.959350585938	-272.1016540527344	34.40803527832032	-1231.932983398438	-420.2122497558595	757.2568359375001	-771.9470214843752	-378.7035522460938	707.0846557617189	-757.7781372070314	-345.7646179199219	710.7985839843751	-759.4199218750001	-398.443328857422	624.6387939453126	-765.7346801757814	-379.2611389160157	503.8699645996095	-744.6745605468751	-353.2687377929688	470.1456604003907	-857.0459594726565	-343.2098388671876	337.6121520996094	-725.2330932617189	-427.6256713867189	265.4052429199219	-702.1782836914064	-380.5297546386719	262.5734558105469	-701.2509155273439	-357.5686340332032	210.724594116211	-719.2974243164064	-414.588836669922	95.82578277587892	-687.9841308593751	-379.5678710937501	103.3895339965821	-767.8885498046876	-466.6321105957032	47.7198600769043	-737.5308227539064	-249.0299987792969	58.8256187438965	-727.4372558593751	-251.4550170898438	66.29084777832033	-675.7003784179689	-298.1179809570313	43.11519622802735	-632.3784790039064	-4216.563964843751	853.1605224609377	-3944.877685546876	
